<svg xmlns="http://www.w3.org/2000/svg" viewBox="0 0 500 500"><g id="freepik--background-simple--inject-35"><path d="M240.16,107.89c56.23-22,155.87-80.22,187.77,3.84C459.59,195.19,344.75,258.84,280,267.54c-65.45,8.79-225.64-33-190.07-119.06C114.4,89.29,178.06,132.15,240.16,107.89Z" style="fill:#FFC100"></path><path d="M240.16,107.89c56.23-22,155.87-80.22,187.77,3.84C459.59,195.19,344.75,258.84,280,267.54c-65.45,8.79-225.64-33-190.07-119.06C114.4,89.29,178.06,132.15,240.16,107.89Z" style="fill:#fff;opacity:0.9"></path></g><g id="freepik--Shadow--inject-35"><ellipse id="freepik--path--inject-35" cx="250" cy="416.24" rx="193.89" ry="11.32" style="fill:#f5f5f5"></ellipse></g><g id="freepik--Gift--inject-35"><rect x="76.33" y="289.89" width="1" height="13.44" style="fill:#FFC100"></rect><rect x="76.33" y="307.33" width="1" height="5.56" style="fill:#FFC100"></rect><path d="M79.83,240.77H243.36a0,0,0,0,1,0,0V416.24a0,0,0,0,1,0,0H84.51a4.67,4.67,0,0,1-4.67-4.67V240.77A0,0,0,0,1,79.83,240.77Z" style="fill:#FFC100"></path><polygon points="243.36 240.77 79.83 240.77 79.83 253.21 173.92 253.21 177.04 416.24 179.22 253.21 243.36 253.21 243.36 240.77" style="opacity:0.2"></polygon><path d="M78.42,214.1H243.36a0,0,0,0,1,0,0v35.56a0,0,0,0,1,0,0H78.42a2.33,2.33,0,0,1-2.33-2.33V216.44A2.33,2.33,0,0,1,78.42,214.1Z" style="fill:#FFC100"></path><polygon points="142.8 416.24 141.09 214.1 176.65 214.1 178.35 416.24 142.8 416.24" style="fill:#263238"></polygon><path d="M248,240.77h64.41a0,0,0,0,1,0,0V416.24a0,0,0,0,1,0,0H243.36a0,0,0,0,1,0,0V245.44A4.67,4.67,0,0,1,248,240.77Z" transform="translate(555.81 657.01) rotate(180)" style="fill:#FFC100"></path><path d="M248,240.77h64.41a0,0,0,0,1,0,0V416.24a0,0,0,0,1,0,0H243.36a0,0,0,0,1,0,0V245.44A4.67,4.67,0,0,1,248,240.77Z" transform="translate(555.81 657.01) rotate(180)" style="opacity:0.2"></path><polygon points="243.36 240.77 312.44 240.77 312.44 253.21 273.89 253.21 268.65 416.24 269.22 253.21 243.36 253.21 243.36 240.77" style="opacity:0.2"></polygon><path d="M245.7,214.1h70.5a0,0,0,0,1,0,0v35.56a0,0,0,0,1,0,0H245.7a2.33,2.33,0,0,1-2.33-2.33V216.44A2.33,2.33,0,0,1,245.7,214.1Z" transform="translate(559.56 463.76) rotate(180)" style="fill:#FFC100"></path><path d="M245.7,214.1h70.5a0,0,0,0,1,0,0v35.56a0,0,0,0,1,0,0H245.7a2.33,2.33,0,0,1-2.33-2.33V216.44A2.33,2.33,0,0,1,245.7,214.1Z" transform="translate(559.56 463.76) rotate(180)" style="opacity:0.2"></path><polygon points="268.65 416.24 271.63 214.1 293.82 214.1 290.84 416.24 268.65 416.24" style="fill:#263238"></polygon><polygon points="268.65 416.24 271.63 214.1 293.82 214.1 290.84 416.24 268.65 416.24" style="opacity:0.2"></polygon><path d="M280.23,147l0-.05H251.14a13.64,13.64,0,0,0-4.82,1.32c-29.5,12.36-43.84,44.75-50.18,65.79H225.9S296.33,145,280.23,147Z" style="fill:#263238"></path><path d="M225.9,214.1c0-27.33,20.68-53.43,50.18-65.79S225.9,214.1,225.9,214.1Z" style="opacity:0.5"></path><path d="M287.83,164.31l0,0H266.24a13,13,0,0,0-4,1c-25.44,9.18-45.37,33.23-56.12,48.85h22.1S300.36,162.81,287.83,164.31Z" style="fill:#263238"></path><path d="M228.26,214.1c10.41-27,30.68-39.67,56.12-48.85S228.26,214.1,228.26,214.1Z" style="opacity:0.5"></path><path d="M142.45,138.47l0-.06H113.29a3,3,0,0,0-2.65,1.49c-9.1,13.93,30,50.46,58.43,74.19h29.76S155.23,136.2,142.45,138.47Z" style="fill:#263238"></path><path d="M198.83,214.1c-28.39-23.73-67.53-60.26-58.43-74.19S198.83,214.1,198.83,214.1Z" style="opacity:0.5"></path><path d="M172.85,158l0,0H151.21a3.07,3.07,0,0,0-2.28,1.1c-9.64,10.35,11.84,37.48,28,55.09H199S182.8,156.26,172.85,158Z" style="fill:#263238"></path><path d="M199,214.1c-16.16-17.62-37.65-44.74-28-55.09S199,214.1,199,214.1Z" style="opacity:0.5"></path></g></svg>