<svg width="512" height="512" viewBox="0 0 512 512" fill="none" xmlns="http://www.w3.org/2000/svg">
<path d="M272.438 511.441L411.29 456.5C466.055 411.57 501 343.367 501 267C501 131.691 391.309 21.9999 256 21.9999C120.692 21.9999 11.0005 131.691 11.0005 267C11.0005 402.312 120.692 512 256 512C261.528 512 267.004 511.801 272.438 511.441Z" fill="#FFCA00"/>
<path d="M399.742 318.949C401.695 295.304 398.094 271.613 387.625 250.32C360.582 195.308 366.785 191.316 365.945 136.719C365.945 125.562 356.903 116.523 345.75 116.523C334.594 116.523 325.555 125.562 325.555 136.719C325.555 143.922 325.555 340.551 325.555 339.781C325.555 342.929 325.219 346.004 324.598 348.969V378.039C324.598 402.535 304.668 422.469 280.172 422.469C263.903 422.469 207.797 422.469 169.621 422.469C186.602 446.086 209.836 464.582 236.801 475.781C236.969 475.847 237.137 475.918 237.305 475.988C253.528 482.844 265.914 495.769 272.438 511.441C324.973 507.961 372.985 487.933 411.289 456.504L396.238 401.211C394.09 393.308 393.332 385.094 394 376.933L399.742 318.949Z" fill="#B87C46"/>
<path d="M94.6098 117.23L88.4574 111.531C78.9769 102.742 64.0277 103.312 55.2426 112.797C46.4574 122.277 47.0277 137.226 56.5082 146.011L94.6098 181.316V117.23Z" fill="#B87C46"/>
<path d="M296.621 0H123.907C107.149 0 93.5159 13.6367 93.5159 30.3945V394.375C93.5159 411.133 107.149 424.77 123.907 424.77H296.621C313.379 424.77 327.016 411.133 327.016 394.375V30.3945C327.016 13.6367 313.379 0 296.621 0V0Z" fill="#3D4EC6"/>
<path d="M152.035 22.5391C150.391 20.0938 149.43 17.1523 149.43 13.9844C149.43 7.76562 153.133 2.42188 158.446 0H123.907C107.121 0 93.512 13.6094 93.512 30.3945V394.375C93.512 411.16 107.121 424.766 123.907 424.766H160.625V49.1758C160.625 39.6172 157.371 30.4727 152.035 22.5391V22.5391Z" fill="#2B3894"/>
<path d="M111.11 191.976V394.375C111.11 401.445 116.84 407.175 123.907 407.175H296.621C303.688 407.175 309.418 401.445 309.418 394.375C309.418 387.429 309.418 286.039 309.418 191.976H111.11Z" fill="#E6F7FE"/>
<path d="M111.11 191.976V394.375C111.11 401.445 116.84 407.175 123.907 407.175H154.18V191.976H111.11Z" fill="#D5F1FE"/>
<path d="M180.676 253.031C180.676 264.105 171.699 273.082 160.625 273.082C149.551 273.082 140.574 264.105 140.574 253.031C140.574 241.957 149.551 232.976 160.625 232.976C171.699 232.976 180.676 241.957 180.676 253.031V253.031Z" fill="#3D4EC6"/>
<path d="M180.676 327.382C180.676 338.456 171.699 347.437 160.625 347.437C149.551 347.437 140.574 338.456 140.574 327.382C140.574 316.308 149.551 307.331 160.625 307.331C171.699 307.331 180.676 316.308 180.676 327.382V327.382Z" fill="#3D4EC6"/>
<path d="M158.36 233.113C148.352 234.242 140.574 242.722 140.574 253.031C140.574 264.105 149.551 273.082 160.625 273.082C167.531 273.082 173.617 269.589 177.223 264.277C159.934 266.226 148.926 247.007 158.36 233.113V233.113Z" fill="#2B3894"/>
<path d="M158.36 307.468C148.352 308.593 140.574 317.078 140.574 327.382C140.574 338.46 149.551 347.437 160.625 347.437C167.531 347.437 173.617 343.945 177.223 338.632C160.039 340.566 148.864 321.453 158.36 307.468Z" fill="#2B3894"/>
<path d="M242.567 244.695H214.098C209.958 244.695 206.598 241.336 206.598 237.195C206.598 233.051 209.958 229.695 214.098 229.695H242.567C246.708 229.695 250.067 233.051 250.067 237.195C250.067 241.336 246.708 244.695 242.567 244.695Z" fill="#11DFEF"/>
<path d="M271.036 276.367H214.098C209.954 276.367 206.598 273.008 206.598 268.867C206.598 264.723 209.954 261.367 214.098 261.367H271.036C275.176 261.367 278.536 264.723 278.536 268.867C278.536 273.008 275.176 276.367 271.036 276.367Z" fill="#11DFEF"/>
<path d="M242.567 319.047H214.098C209.958 319.047 206.598 315.691 206.598 311.547C206.598 307.402 209.958 304.047 214.098 304.047H242.567C246.708 304.047 250.067 307.402 250.067 311.547C250.067 315.691 246.708 319.047 242.567 319.047Z" fill="#11DFEF"/>
<path d="M271.036 350.719H214.098C209.954 350.719 206.598 347.363 206.598 343.219C206.598 339.078 209.954 335.719 214.098 335.719H271.036C275.176 335.719 278.536 339.078 278.536 343.219C278.536 347.363 275.176 350.719 271.036 350.719Z" fill="#11DFEF"/>
<path d="M296.52 17.5977H270.852C268.43 17.5977 266.469 19.5586 266.469 21.9766C266.469 27.7852 261.719 32.5352 255.914 32.5352H164.418C158.61 32.5352 153.86 27.7852 153.86 21.9766C153.86 19.5586 151.899 17.5977 149.477 17.5977H123.809C116.739 17.5977 111.008 23.3281 111.008 30.3945V193.977H309.321V30.3945C309.321 23.3281 303.59 17.5977 296.52 17.5977Z" fill="#343434"/>
<path d="M154.18 24.5078C153.977 23.6953 153.86 22.8516 153.86 21.9805C153.86 19.5586 151.899 17.5977 149.477 17.5977H123.809C116.739 17.5977 111.008 23.3281 111.008 30.3945V193.977H154.18V24.5078Z" fill="#281B23"/>
<path d="M296.52 17.5977H270.852C268.43 17.5977 266.469 19.5586 266.469 21.9766C266.469 27.7852 261.719 32.5352 255.914 32.5352H205.449L309.32 162.738V30.3945C309.32 23.3281 303.59 17.5977 296.52 17.5977V17.5977Z" fill="#2E1F29"/>
<path d="M177.918 77.2069H143.332C139.192 77.2069 135.832 73.8514 135.832 69.7069C135.832 65.5624 139.192 62.2069 143.332 62.2069H177.918C182.059 62.2069 185.418 65.5624 185.418 69.7069C185.418 73.8475 182.059 77.2069 177.918 77.2069Z" fill="#31242C"/>
<path d="M128.817 241.191C121.086 249.531 108.055 250.031 99.7113 242.3L65.2152 210.336C56.8715 202.605 56.3754 189.574 64.1058 181.23C71.8363 172.886 84.8676 172.39 93.2113 180.121L127.707 212.086C136.047 219.816 136.547 232.847 128.817 241.191Z" fill="#B87C46"/>
<path d="M127.707 212.086L111.297 196.882C113.457 204.707 111.664 213.425 105.746 219.812C99.8246 226.203 91.266 228.652 83.3051 227.097L99.7113 242.3C108.055 250.031 121.082 249.531 128.817 241.191C136.547 232.847 136.047 219.816 127.707 212.086Z" fill="#B87C46"/>
<path d="M128.817 297.363C121.086 305.707 108.055 306.203 99.7113 298.472L65.2152 266.507C56.8715 258.777 56.3754 245.746 64.1058 237.406C71.8363 229.062 84.8676 228.566 93.2113 236.296L127.707 268.261C136.047 275.992 136.547 289.019 128.817 297.363Z" fill="#B87C46"/>
<path d="M128.817 353.539C121.086 361.882 108.055 362.378 99.7113 354.648L65.2152 322.683C56.8715 314.953 56.3754 301.921 64.1058 293.578C71.8363 285.234 84.8676 284.738 93.2113 292.468L127.707 324.433C136.047 332.164 136.547 345.195 128.817 353.539V353.539Z" fill="#B87C46"/>
<path d="M396.238 401.206C395.172 397.277 394.449 393.273 394.07 389.234C355.906 451.89 281.813 480.988 212.215 462.894C219.977 467.882 228.199 472.202 236.801 475.777C236.969 475.847 237.137 475.917 237.305 475.988C253.527 482.839 265.914 495.765 272.438 511.441C324.973 507.96 372.984 487.929 411.289 456.499L396.238 401.206Z" fill="#AD764C"/>
<path d="M127.707 268.261L111.297 253.058C113.457 260.878 111.664 269.597 105.746 275.988C99.8246 282.378 91.266 284.828 83.3051 283.273L99.7113 298.472C108.055 306.203 121.086 305.707 128.817 297.363C136.547 289.019 136.047 275.992 127.707 268.261Z" fill="#B87C46"/>
<path d="M127.707 324.433L111.297 309.23C113.457 317.054 111.664 325.773 105.746 332.16C99.8246 338.55 91.266 341.003 83.3051 339.445L99.7113 354.648C108.055 362.378 121.086 361.882 128.817 353.538C136.547 345.195 136.047 332.163 127.707 324.433Z" fill="#B87C46"/>
<g clip-path="url(#clip0)">
<path d="M230.663 75.951L246.311 94.5753L254.311 80.2348L203.662 53.0181L159.552 135.699" fill="#6F9935"/>
<path d="M248.616 90.4434L231.204 69.7196L165.138 125.229L161.796 131.495L162.938 132.854L230.663 75.951L246.311 94.5754L248.616 90.4434Z" fill="#658B30"/>
<path d="M159.552 135.699L230.663 75.9511L267.65 119.972L196.539 179.721L159.552 135.699Z" fill="#79A73A"/>
<path d="M178.715 144.756C181.583 140.391 182.062 134.875 179.989 130.081L221.606 95.1142C225.971 97.9826 231.487 98.4615 236.281 96.3885L248.487 110.915C245.618 115.281 245.139 120.796 247.213 125.59L206.087 160.145L205.594 160.559C201.23 157.691 195.715 157.211 190.921 159.283L178.715 144.756Z" fill="#AAC16B"/>
<path d="M220.714 136.301C225.389 132.373 225.995 125.398 222.067 120.723C218.138 116.047 211.163 115.442 206.488 119.37C201.813 123.299 201.207 130.273 205.135 134.949C209.064 139.624 216.038 140.23 220.714 136.301Z" fill="#79A73A"/>
<path d="M229.49 76.9369L216.797 69.9818L216.232 69.68C212.546 73.3793 207.247 74.9763 202.131 73.9287L201.83 74.4928L178.176 120.051L229.49 76.9369Z" fill="#AAC16B"/>
<path d="M183.497 109.804L178.176 120.051L229.49 76.9369L225.329 74.656L183.497 109.804Z" fill="#89B140"/>
<path d="M196.399 145.177C197.334 144.392 197.455 142.997 196.67 142.062C195.884 141.127 194.489 141.005 193.554 141.791C192.619 142.577 192.498 143.972 193.283 144.907C194.069 145.842 195.464 145.963 196.399 145.177Z" fill="#79A73A"/>
<path d="M233.648 113.881C234.583 113.095 234.704 111.7 233.918 110.765C233.133 109.83 231.738 109.709 230.803 110.494C229.868 111.28 229.746 112.675 230.532 113.61C231.318 114.545 232.713 114.666 233.648 113.881Z" fill="#79A73A"/>
</g>
<defs>
<clipPath id="clip0">
<rect width="108.229" height="108.229" fill="white" transform="translate(132 102.908) rotate(-40.0373)"/>
</clipPath>
</defs>
</svg>
