<svg width="512" height="512" viewBox="0 0 512 512" fill="none" xmlns="http://www.w3.org/2000/svg">
<path d="M437 471H75C33.645 471 0 437.355 0 396V116C0 74.645 33.645 41 75 41H437C478.355 41 512 74.645 512 116V396C512 437.355 478.355 471 437 471Z" fill="#323232"/>
<path d="M437 41H256V471H437C478.355 471 512 437.355 512 396V116C512 74.645 478.355 41 437 41Z" fill="#222222"/>
<path d="M75 396V116H437V396H75Z" fill="#FFEE78"/>
<path d="M256 116H437V396H256V116Z" fill="#FCD232"/>
<path d="M437 101H75C66.716 101 60 107.716 60 116V396C60 404.284 66.716 411 75 411H437C445.284 411 452 404.284 452 396V116C452 107.716 445.284 101 437 101ZM210 301V211H302V301H210ZM180 196V241H90V191H180V196ZM90 271H180V316V321H90V271ZM332 196V191H422V241H332V196ZM332 316V271H422V321H332V316ZM422 161H317C308.716 161 302 167.716 302 176V181H271V152.213L292.213 131H422V161ZM249.787 131L245.393 135.394C242.58 138.206 241 142.021 241 146V181H210V176C210 167.716 203.284 161 195 161H90V131H249.787ZM90 351H195C203.284 351 210 344.284 210 336V331H241V359.787L219.787 381H90V351ZM262.213 381L266.607 376.606C269.42 373.794 271 369.979 271 366V331H302V336C302 344.284 308.716 351 317 351H422V381H262.213Z" fill="#FCD232"/>
<path d="M437 101H256V211H302V301H256V411H437C445.284 411 452 404.284 452 396V116C452 107.716 445.284 101 437 101ZM422 381H262.213L266.607 376.606C269.42 373.794 271 369.979 271 366V331H302V336C302 344.284 308.716 351 317 351H422V381ZM422 321H332V316V271H422V321ZM422 241H332V196V191H422V241ZM422 161H317C308.716 161 302 167.716 302 176V181H271V152.213L292.213 131H422V161Z" fill="#F7B90F"/>
</svg>
