<svg id="Capa_1" enable-background="new 0 0 497 497" height="512" viewBox="0 0 497 497" width="512" xmlns="http://www.w3.org/2000/svg"><g><path d="m472.069 424.182-447.009 1.175c-11.046 0-20-8.954-20-20l1.651-315.927c0-9.319-.337-20.65 8.289-22.87 1.598-.411 3.273-.63 5-.63h457c11.046 0 20 8.954 20 20v325.136c0 1.728-.219 3.405-.631 5.004-2.222 8.624-14.982 8.112-24.3 8.112z" fill="#655e67"/><path d="m496.37 416.07c-2.22 8.62-10.05 15-19.37 15h-457c-11.05 0-20-8.96-20-20v-325.14c0-9.32 6.37-17.15 15-19.37v344.51c0 2.75 2.24 5 5 5z" fill="#544f56"/><path d="m248.5 182.434c-.5 0-.993.025-1.48.074-7.345.742-9.336 6.463-9.336 14.004l2.422 101.064c0 8.041.354 13.211 8.395 13.211 7.225 0 13.221-1.485 14.363-8.386.129-.779.196-1.579.196-2.395v-103.013c-.001-8.041-6.519-14.559-14.56-14.559z" fill="#f9f8f9"/><path d="m262.98 301.49c-.74 7.34-6.94 13.08-14.48 13.08-8.04 0-14.56-6.52-14.56-14.56v-103.02c0-7.54 5.74-13.74 13.08-14.48-.05.49-.08.98-.08 1.48v103.02c0 8.04 6.52 14.56 14.56 14.56.5 0 .99-.03 1.48-.08z" fill="#efedef"/><path d="m188.958 183.366c-1.502-.499-3.028-.74-4.528-.747-6.128-.029-8.233 4.902-10.269 11.032l-22.128 64.404c-.301.907-4.407-.292-4.72-1.194l-22.438-64.641c-2.637-7.596-10.934-11.617-18.528-8.979-7.596 2.636-8.307 10.246-5.671 17.842l33.819 100.844c.011.032 6.902 12.64 14.038 12.64h.116c7.183-.049 13.56-4.652 15.871-11.452.01-.031.021-.062.031-.093l33.636-101.248c2.532-7.633-1.598-15.873-9.229-18.408z" fill="#f9f8f9"/><path d="m147.57 308.9c.73 2.07 1.84 3.93 3.25 5.51-.71.1-1.44.16-2.17.16h-.12c-7.14 0-13.52-4.51-15.91-11.24-.01-.03-.02-.06-.03-.1l-35.22-101.46c-2.59-7.45 1.23-15.57 8.54-18.37-.66 2.65-.59 5.52.37 8.3l37.31 107.53c.01.04 3.97 9.64 3.98 9.67z" fill="#efedef"/><path d="m184.43 182.62c-1.01 1.28-1.82 2.76-2.36 4.4l-27.89 83.83c-.3.9-1.58.91-1.89.01l-4.72-13.59c.49.46 1.39.31 1.64-.42l21.34-64.26c2.04-6.13 7.75-10 13.88-9.97z" fill="#efedef"/><path d="m341.244 182.434h-28.683c-.188-.004-.374-.003-.561.001-7.588.177-12.55 7.06-12.417 14.683l5.416 95.615c0 7.839-.973 21.448 6.858 21.816 8.361.394 15.263-6.268 15.263-14.542v-29.27c0-.55.444-.997.995-1 4.99-.024 10.038-.044 13.13-.044 24.371 0 44.199-19.572 44.199-43.629s-19.829-43.63-44.2-43.63zm0 58.142c-3.118 0-8.081.019-13.005.043-.552.003-1.002-.442-1.004-.994-.024-5.16-.044-10.391-.044-13.56 0-2.727-.012-8.108-.026-13.509-.001-.553.447-1.003 1-1.003h13.079c8.175 0 17.76 5.994 17.76 13.86.001 7.865-9.585 15.163-17.76 15.163z" fill="#f9f8f9"/><path d="m367.33 226.06c0 7.87-6.91 14.52-15.09 14.52-3.11 0-8.08.01-13 .04-.09 0-.17-.01-.25-.04h2.25c8.18 0 15.09-6.65 15.09-14.52 0-7.86-6.91-14.51-15.09-14.51h11c8.18 0 15.09 6.65 15.09 14.51z" fill="#efedef"/><path d="m298 196.99v102.61c0 7.83 6.03 14.58 13.86 14.95h.14v-132.11c-7.59.17-14.13 6.93-14 14.55z" fill="#efedef"/><path d="m285.783 147.73 5.167-9.02 4.931-28.889c.267-1.562-1.303-2.799-2.76-2.174l-25.06 10.751c-.844.362-1.827.103-2.382-.629l-15.622-20.594c-.8-1.055-2.387-1.055-3.187 0l-15.62 20.591c-.556.733-1.54.992-2.385.628l-13.057-5.63-7.63-.031c-1.456-.628-3.028.607-2.764 2.17l6.067 29.867c.163.962.996 1.667 1.972 1.667l70.358 2.957c.976-.001 1.808-.703 1.972-1.664z" fill="#f3d332"/><path d="m290.95 138.71-1.93 11.33c-.17.96-1 1.67-1.97 1.67h-77.16c-.98 0-1.81-.71-1.98-1.67l-6.8-40.25c-.26-1.57 1.31-2.8 2.77-2.17l11.93 5.14 4.1 24.28c.17.96 1 1.67 1.98 1.67z" fill="#ecc52e"/><g><path d="m439.5 380.992h-131c-4.143 0-7.5-3.358-7.5-7.5s3.357-7.5 7.5-7.5h131c4.143 0 7.5 3.358 7.5 7.5s-3.357 7.5-7.5 7.5z" fill="#f9f8f9"/></g><g><path d="m188.5 380.992h-131c-4.143 0-7.5-3.358-7.5-7.5s3.357-7.5 7.5-7.5h131c4.143 0 7.5 3.358 7.5 7.5s-3.357 7.5-7.5 7.5z" fill="#f9f8f9"/></g><path d="m249.397 346.371 8.273 16.763c.146.295.427.5.753.547l18.499 2.688c.82.119 1.148 1.127.554 1.706l-13.386 13.048c-.236.23-.343.561-.288.885l3.16 18.425c.14.817-.717 1.44-1.451 1.054l-16.546-8.699c-.291-.153-.639-.153-.931 0l-7.056 3.71-5.571-3.298c-.734.386-1.591-.237-1.451-1.054l4.235-12.986c.056-.324-.052-.655-.288-.885l-6.302-7.212c-.594-.579-.266-1.587.554-1.706l-.476-4.673 6.897-1.002c.326-.047.607-.252.753-.547l8.273-16.763c.368-.744 1.428-.744 1.795-.001z" fill="#f3d332"/><path d="m244.22 377.62-3.24 18.88-9.49 4.99c-.74.38-1.59-.24-1.45-1.06l3.16-18.42c.05-.33-.05-.66-.29-.89l-13.39-13.05c-.59-.57-.26-1.58.56-1.7l11.6-1.69 12.19 11.89c.29.27.41.67.35 1.05z" fill="#ecc52e"/></g></svg>